<svg width="1024" height="1024" viewBox="0 0 1024 1024" fill="none" xmlns="http://www.w3.org/2000/svg">
<rect width="1024" height="1024" rx="220" fill="url(#paint0_linear)"/>
<path d="M512 256C370.599 256 256 370.599 256 512C256 653.401 370.599 768 512 768C653.401 768 768 653.401 768 512C768 370.599 653.401 256 512 256ZM512 704C405.98 704 320 618.02 320 512C320 405.98 405.98 320 512 320C618.02 320 704 405.98 704 512C704 618.02 618.02 704 512 704Z" fill="#F0F9F4"/>
<defs>
<linearGradient id="paint0_linear" x1="102.4" y1="102.4" x2="921.6" y2="921.6" gradientUnits="userSpaceOnUse">
<stop stop-color="#51A780"/>
<stop offset="1" stop-color="#327952"/>
</linearGradient>
</defs>
</svg>