<svg width="1024" height="1024" viewBox="0 0 1024 1024" fill="none" xmlns="http://www.w3.org/2000/svg">
<g clip-path="url(#clip0_10_10308)">
<g clip-path="url(#clip1_10_10308)">
<path d="M236.3 612C222.9 612 210.9 609.8 200.3 605.4C189.7 600.8 181.3 593.6 175.1 583.8C169.1 573.8 166.1 560.8 166.1 544.8V455.7L144.5 445.8V441H213.2V445.8L191.6 455.7V542.7C191.6 562.5 196 576.4 204.8 584.4C213.6 592.2 225.5 596.1 240.5 596.1C249.3 596.1 257.3 594.4 264.5 591C271.7 587.6 277.4 582.5 281.6 575.7C286 568.7 288.2 559.8 288.2 549V455.1L262.4 445.8V441H326.6V445.8L305.3 455.4V544.8C305.3 560.8 302.3 573.8 296.3 583.8C290.3 593.6 282.1 600.8 271.7 605.4C261.5 609.8 249.7 612 236.3 612ZM365.691 609V604.2L387.291 594.3V455.7L365.691 445.8V441H432.291C478.091 441 500.991 456.9 500.991 488.7C500.991 498.9 497.891 507.7 491.691 515.1C485.491 522.5 476.891 528.2 465.891 532.2C455.091 536 442.591 537.9 428.391 537.9H412.791V594.3L437.391 604.2V609H365.691ZM412.791 456V522.9H429.291C443.091 522.9 453.991 520 461.991 514.2C470.191 508.2 474.291 499.8 474.291 489C474.291 477.2 470.091 468.8 461.691 463.8C453.491 458.6 442.091 456 427.491 456H412.791Z" fill="url(#paint0_linear_10_10308)"/>
<path d="M156.437 420.615C87.1809 328.308 205.32 282.154 234.998 236C264.679 282.154 382.82 328.308 313.563 420.615H156.437Z" fill="url(#paint1_linear_10_10308)"/>
<path d="M660.318 463.6C659.385 463.6 658.335 463.6 657.168 463.6C656.001 463.367 654.835 463.133 653.668 462.9C643.635 460.333 636.168 456.133 631.268 450.3C626.368 444.467 623.918 438.983 623.918 433.85C623.918 429.183 625.085 425.1 627.418 421.6C629.751 418.1 631.851 415.183 633.718 412.85L647.718 395H649.468C653.201 401.533 657.635 406.783 662.768 410.75C668.135 414.717 674.901 417.517 683.068 419.15C687.735 419.85 690.068 421.717 690.068 424.75C690.068 426.617 689.018 428.95 686.918 431.75L668.368 459.05C666.968 460.917 665.685 462.2 664.518 462.9C663.585 463.367 662.185 463.6 660.318 463.6ZM606.5 626.35C589.233 626.35 574.883 622.033 563.45 613.4C552.017 605 543.5 593.567 537.9 579.1C532.3 564.867 529.5 549.117 529.5 531.85C529.5 508.983 533 486.233 540 463.6C547 440.733 555.05 418.333 564.15 396.4L575.35 399.55C568.583 418.683 562.517 436.533 557.15 453.1C551.783 469.667 549.1 487.05 549.1 505.25C549.1 525.317 555.283 541.65 567.65 554.25C580.25 566.85 597.983 573.15 620.85 573.15C636.25 573.15 651.183 570.233 665.65 564.4C680.117 558.567 693.183 549.817 704.85 538.15C716.75 526.483 726.2 512.017 733.2 494.75C738.333 482.383 741.717 468.383 743.35 452.75C744.983 436.883 745.8 421.25 745.8 405.85C745.8 396.983 745.45 390.1 744.75 385.2C744.283 380.067 744.05 376.1 744.05 373.3C744.05 369.333 744.867 365.833 746.5 362.8C748.133 359.767 750.233 358.25 752.8 358.25C754.433 360.583 756.417 364.2 758.75 369.1C761.083 373.767 762.25 380.417 762.25 389.05C762.25 410.75 761.083 430.7 758.75 448.9C756.65 466.867 752.917 483.9 747.55 500C742.183 516.1 734.6 532.2 724.8 548.3C716.4 562.3 706.25 575.133 694.35 586.8C682.45 598.7 669.15 608.267 654.45 615.5C639.75 622.733 623.767 626.35 606.5 626.35ZM798.85 642C797.216 642 795.116 641.65 792.55 640.95C785.316 638.617 779.6 635.117 775.4 630.45C771.2 625.55 769.1 620.65 769.1 615.75C769.1 611.783 770.15 608.167 772.25 604.9C774.35 601.633 776.216 598.95 777.85 596.85L790.45 580.4H792.55C794.416 586.7 798.15 591.717 803.75 595.45C809.583 599.183 815.416 601.633 821.25 602.8L844.7 571.3H846.8C848.666 577.367 852.166 582.033 857.3 585.3C862.433 588.567 867.916 590.783 873.75 591.95C877.716 592.883 879.7 594.867 879.7 597.9C879.7 599.767 878.883 601.867 877.25 604.2L860.1 628.7C858 631.5 855.55 632.9 852.75 632.9C851.116 632.9 849.016 632.55 846.45 631.85C840.85 629.75 835.95 627.183 831.75 624.15C827.55 620.883 824.4 617.733 822.3 614.7L806.2 637.8C804.1 640.6 801.65 642 798.85 642ZM758.6 397.55C757.2 394.983 755.8 391.367 754.4 386.7C753 382.033 752.066 377.017 751.6 371.65C751.133 366.517 751.6 361.967 753 358C759.766 360.333 765.95 361.5 771.55 361.5C783.216 361.5 792.083 358.35 798.15 352.05C804.216 345.75 808.65 337.467 811.45 327.2L818.45 327.9C817.516 339.8 814.833 351 810.4 361.5C805.966 372.233 799.433 380.867 790.8 387.4C782.4 394.167 771.666 397.55 758.6 397.55ZM817.7 504.9L814.9 495.8L853.05 475.5C864.484 469.433 873 464.183 878.6 459.75C884.434 455.083 888.4 451.233 890.5 448.2C892.6 444.933 893.65 442.6 893.65 441.2C893.65 437.7 891.784 433.733 888.05 429.3C884.317 424.633 879.184 420.667 872.65 417.4C868.917 415.3 864.717 413.55 860.05 412.15C855.617 410.517 850.717 409.583 845.35 409.35L856.55 354.05C867.75 355.217 876.85 357.783 883.85 361.75C892.95 366.65 899.6 373.3 903.8 381.7C908.234 389.867 910.45 398.5 910.45 407.6C910.45 418.1 908.117 430.233 903.45 444C898.784 457.533 892.717 470.133 885.25 481.8C882.45 486.233 880 489.617 877.9 491.95C875.8 494.05 873.35 495.567 870.55 496.5C867.984 497.2 864.367 497.9 859.7 498.6L817.7 504.9Z" fill="url(#paint2_linear_10_10308)"/>
</g>
</g>
<defs>
<linearGradient id="paint0_linear_10_10308" x1="381" y1="291" x2="381" y2="622" gradientUnits="userSpaceOnUse">
<stop stop-color="#1C3536"/>
<stop offset="0.802885" stop-color="#599697"/>
</linearGradient>
<linearGradient id="paint1_linear_10_10308" x1="235" y1="636" x2="235" y2="236" gradientUnits="userSpaceOnUse">
<stop stop-color="#1C3536"/>
<stop offset="0.879808" stop-color="#E1F8F9"/>
</linearGradient>
<linearGradient id="paint2_linear_10_10308" x1="818" y1="-25" x2="818" y2="920" gradientUnits="userSpaceOnUse">
<stop stop-color="#1C3536"/>
<stop offset="1" stop-color="#529A9C"/>
</linearGradient>
<clipPath id="clip0_10_10308">
<rect width="1024" height="1024" fill="white"/>
</clipPath>
<clipPath id="clip1_10_10308">
<rect width="1023" height="997" fill="white" transform="translate(1 27)"/>
</clipPath>
</defs>
</svg>
